<?xml version="1.0" standalone="no"?>
<!DOCTYPE svg PUBLIC "-//W3C//DTD SVG 20010904//EN" "http://www.w3.org/TR/2001/REC-SVG-20010904/DTD/svg10.dtd">
<svg xmlns="http://www.w3.org/2000/svg" version="1.0" width="835" height="768" viewBox="0 0 835.000000 768.000000" preserveAspectRatio="xMidYMid meet">

<g transform="translate(0.000000,768.000000) scale(0.100000,-0.100000)" fill="#ffffff" stroke="none">
<path d="M0 3840 l0 -3840 4175 0 4175 0 0 3840 0 3840 -4175 0 -4175 0 0 -3840z m5017 2888 c-19 -24 -199 -205 -399 -402 l-363 -359 -525 2 -524 1 -355 -352 c-195 -194 -358 -355 -361 -358 -3 -3 -94 -92 -202 -199 -153 -151 -203 -194 -224 -195 -15 -1 -29 -8 -32 -16 -2 -9 0 -11 5 -5 9 11 33 18 33 9 0 -3 -8 -16 -17 -28 l-17 -23 -60 46 c-84 65 -157 133 -154 142 3 8 442 450 980 987 l294 292 598 0 597 0 232 154 c128 84 297 199 377 254 80 55 147 98 149 96 2 -2 -12 -23 -32 -46z m-42 -195 c-14 -66 -120 -458 -134 -494 -5 -13 -37 -54 -71 -91 l-62 -68 424 -1 c453 -2 468 -2 468 -4 0 -1 -116 -117 -257 -258 l-258 -257 -810 0 -810 0 -182 -182 -183 -183 0 -1332 0 -1333 916 -2 916 -3 -262 -254 -263 -254 -186 6 c-102 4 -296 7 -431 8 -215 1 -238 3 -190 13 l55 12 -40 7 c-22 4 -231 7 -464 7 l-425 0 -215 213 c-119 118 -240 236 -268 263 l-53 49 -7 205 c-4 113 -10 185 -13 160 -16 -138 -22 90 -27 1008 l-6 1012 194 195 c107 108 203 200 213 206 18 11 19 8 13 -52 -4 -35 -7 -223 -7 -416 -1 -194 -5 -353 -9 -353 -4 0 -7 27 -5 60 2 37 -1 60 -7 60 -7 0 -9 72 -5 223 3 122 6 231 6 242 1 34 -12 115 -18 115 -3 0 -72 -66 -154 -147 l-148 -148 0 -1187 c0 -1030 2 -1188 15 -1195 8 -5 124 -117 258 -251 l245 -242 833 0 834 0 180 181 180 180 -185 -4 c-102 -2 -194 -6 -205 -9 -59 -16 -196 -18 -292 -4 -75 12 -182 16 -396 16 -162 0 -376 3 -475 7 l-182 6 0 1376 0 1376 208 208 208 207 214 6 215 6 173 172 c191 189 242 246 219 246 -8 0 -17 -8 -19 -18 -5 -17 -22 -19 -194 -25 -104 -4 -322 -7 -484 -7 l-295 -1 -283 -277 -283 -277 1 -277 0 -276 75 -70 75 -70 0 -122 c0 -118 1 -124 25 -146 53 -49 21 -134 -50 -134 -74 0 -106 88 -49 135 23 20 24 26 24 142 l0 121 -70 64 -70 63 0 304 c-1 167 2 306 5 310 3 3 135 135 293 294 l287 287 445 -1 c245 0 479 -4 520 -8 l75 -8 307 306 c284 283 308 309 320 354 8 32 16 46 25 43 7 -3 13 -1 13 5 0 6 5 7 10 4 6 -3 10 -1 10 4 0 6 4 11 8 11 5 0 3 -26 -3 -57z m1432 -280 c-76 -3 -87 -6 -85 -21 3 -18 17 -32 33 -32 6 0 3 5 -5 10 -8 5 -10 10 -5 10 6 0 3 5 -5 10 -9 6 -11 10 -3 10 7 0 19 -12 27 -27 13 -25 12 -30 -5 -55 -11 -15 -25 -25 -32 -23 -18 7 -60 -29 -62 -53 -1 -24 -23 -52 -39 -52 -6 0 -2 7 8 15 11 8 15 15 9 15 -14 0 -26 -18 -29 -40 -1 -8 -4 -22 -6 -30 -3 -8 -3 -12 -1 -7 3 4 8 5 13 2 5 -3 33 18 63 47 184 178 36 26 -538 -550 -357 -359 -650 -652 -650 -652 0 0 -2 91 -3 201 l-4 202 372 368 373 369 -454 0 -454 0 145 144 145 145 640 -2 c352 0 600 -3 552 -4z m113 3 c0 -3 -4 -8 -10 -11 -5 -3 -10 -1 -10 4 0 6 5 11 10 11 6 0 10 -2 10 -4z m-73 -73 c-22 -22 -29 -25 -39 -15 -11 11 -10 12 3 7 9 -3 23 3 34 15 10 11 21 20 24 20 3 0 -7 -12 -22 -27z m-139 -72 c-7 -11 -16 -17 -21 -14 -4 3 0 11 10 19 24 18 25 17 11 -5z m-2448 -451 c0 -19 -7 -20 -257 -20 l-257 0 -253 -252 -253 -252 0 -173 c0 -147 -2 -173 -15 -173 -13 0 -15 27 -15 183 l0 183 261 262 260 262 265 0 c257 0 264 -1 264 -20z m-1924 -903 l110 -98 3 -812 c3 -831 -5 -1351 -20 -1341 -5 3 -9 1 -9 -5 0 -5 6 -11 13 -14 6 -2 9 -8 5 -12 -3 -4 -57 43 -120 103 l-113 110 -2 1091 c-1 861 1 1090 11 1084 7 -5 62 -52 122 -106z m443 -134 c-1 -171 -4 -234 -10 -204 -5 25 -8 90 -8 145 1 56 -2 140 -5 189 -4 54 -2 87 4 87 5 0 7 7 4 15 -4 8 -1 15 5 15 8 0 11 -73 10 -247z m1831 -352 l0 -48 -46 -6 c-78 -8 -87 -26 -94 -170 -7 -138 -20 -175 -78 -214 l-32 -21 35 -22 c56 -35 68 -68 75 -214 5 -122 7 -129 32 -151 14 -12 44 -25 67 -29 l41 -6 0 -51 0 -50 -57 6 c-103 13 -161 48 -189 114 -9 21 -14 71 -14 135 -1 165 -13 195 -92 217 -36 9 -38 12 -38 52 0 42 1 43 45 55 68 18 78 41 85 196 5 138 12 159 62 206 28 26 99 48 156 49 l42 1 0 -49z m604 19 c75 -36 89 -70 96 -225 6 -152 16 -175 82 -197 44 -15 44 -14 39 -79 -1 -10 -20 -24 -47 -34 -63 -24 -74 -53 -74 -197 -1 -192 -40 -241 -212 -262 l-48 -6 0 50 c0 33 4 50 13 50 6 0 29 5 50 11 60 16 71 44 77 190 6 144 15 166 86 206 21 13 31 23 22 23 -25 0 -79 50 -94 87 -9 20 -14 70 -14 128 0 143 -25 185 -110 185 -27 0 -28 2 -32 51 l-3 51 62 -5 c34 -2 82 -14 107 -27z m1774 -812 l-3 -803 -520 -516 c-286 -283 -559 -552 -606 -597 l-85 -82 -177 0 -178 0 -382 -257 c-210 -141 -389 -262 -398 -270 -29 -25 -28 -13 10 70 141 303 213 468 209 472 -3 3 -58 2 -122 -2 -64 -5 -116 -5 -116 -2 0 6 995 990 1161 1147 l76 72 7 228 7 227 287 288 c158 158 290 287 294 287 5 0 8 -233 8 -518 l0 -517 -273 -270 c-409 -405 -507 -500 -507 -492 0 4 16 22 36 41 22 21 32 36 25 40 -6 4 -11 2 -11 -5 0 -7 -3 -9 -7 -6 -3 4 -13 1 -22 -6 -8 -6 -5 3 8 21 23 33 35 39 46 22 7 -11 35 -2 35 12 0 5 -7 8 -16 6 -10 -2 -19 3 -21 10 -3 6 0 12 7 12 6 0 8 -5 4 -12 -4 -7 -3 -8 4 -4 6 4 9 12 6 19 -2 7 135 151 304 320 l309 307 4 208 c3 114 2 310 -1 435 l-5 228 -222 -224 -223 -223 0 -226 0 -226 -297 -295 c-164 -162 -336 -329 -383 -372 -143 -132 -491 -467 -488 -470 2 -2 45 4 96 12 52 8 96 12 98 10 3 -3 -6 -33 -20 -68 -15 -34 -26 -66 -26 -70 0 -5 -13 -30 -28 -56 -25 -43 -66 -130 -109 -233 -17 -38 68 39 464 422 l214 207 104 3 103 3 511 508 511 508 0 590 0 589 -584 0 c-582 0 -584 0 -589 21 -3 11 -14 23 -25 26 -16 4 -22 20 -32 80 -6 42 -20 96 -31 120 -10 25 -19 47 -19 49 0 2 356 4 790 4 l791 0 -3 -802z m-4068 517 c0 -30 -8 -40 -70 -91 -38 -31 -70 -57 -70 -58 0 -1 32 -26 70 -56 61 -48 70 -59 70 -87 0 -18 -3 -33 -7 -33 -14 0 -208 162 -211 175 -3 12 194 185 211 185 4 0 7 -16 7 -35z m273 -58 c53 -44 97 -83 97 -88 0 -4 -39 -40 -87 -80 -49 -40 -96 -79 -106 -87 -20 -18 -22 -16 -31 20 -5 24 1 33 65 85 l71 57 -33 31 c-19 16 -51 44 -73 61 -34 28 -37 35 -31 63 8 37 2 40 128 -62z m2901 -387 l-221 -220 -234 2 -234 2 175 6 c96 3 164 7 150 8 -20 2 -22 4 -10 12 10 7 -32 10 -127 10 -120 0 -143 2 -143 15 0 13 29 15 203 15 l202 0 150 150 150 150 -277 0 -276 0 -12 -35 c-6 -19 -22 -43 -36 -54 -18 -14 -26 -34 -33 -86 -10 -70 -21 -97 -21 -52 0 28 -15 45 -23 25 -3 -7 -6 17 -6 55 -1 56 2 70 20 85 29 24 49 66 49 102 l0 30 388 0 387 0 -221 -220z m-3274 -40 c29 -29 27 -83 -4 -112 -25 -23 -25 -26 -27 -211 l-2 -188 82 -75 81 -76 -2 -66 c-1 -63 -1 -64 -8 -22 -6 42 -6 43 -12 15 -4 -26 -5 -24 -7 13 0 26 -8 49 -19 60 -10 9 -48 45 -85 79 l-67 63 0 191 0 191 -30 28 c-35 33 -38 67 -9 104 26 33 79 36 109 6z m455 -100 c3 -5 2 -10 -4 -10 -5 0 -13 5 -16 10 -3 6 -2 10 4 10 5 0 13 -4 16 -10z m-36 -372 c-1 -189 -4 -333 -6 -320 -2 12 -9 20 -14 17 -10 -7 -13 628 -2 638 3 4 10 7 15 7 4 0 7 -154 7 -342z m-281 205 l-5 -77 68 -64 69 -65 -2 -321 c-1 -379 -16 -345 -24 56 l-5 246 -70 65 -69 64 0 87 c0 81 1 86 21 86 21 0 21 -4 17 -77z m-178 -457 c0 -24 -17 -28 -23 -6 -3 13 0 20 9 20 8 0 14 -6 14 -14z m-212 -131 c-3 -29 -18 -34 -18 -7 0 17 8 32 17 32 1 0 2 -11 1 -25z m519 -412 c-2 -16 -4 -3 -4 27 0 30 2 43 4 28 2 -16 2 -40 0 -55z m981 -160 c-10 -2 -26 -2 -35 0 -10 3 -2 5 17 5 19 0 27 -2 18 -5z m1582 -178 c-7 -9 -15 -13 -19 -10 -3 3 1 10 9 15 21 14 24 12 10 -5z m-1060 -300 l-125 -125 -518 0 -518 0 -57 62 c-31 33 -56 68 -54 75 2 8 -3 22 -10 31 -7 9 0 6 15 -7 15 -14 27 -20 27 -14 0 5 -9 18 -20 28 -11 10 -18 20 -15 23 3 3 36 -25 74 -61 l69 -67 429 1 c235 1 415 4 398 6 -61 7 -71 12 -73 35 -1 13 -3 34 -4 48 -3 23 1 26 42 31 25 3 -133 7 -350 9 -328 2 -603 12 -512 18 12 1 22 7 22 12 0 6 -38 10 -95 10 -52 0 -95 -4 -95 -9 0 -5 20 -27 45 -50 24 -22 41 -41 37 -41 -4 0 -32 25 -62 55 l-54 55 764 0 765 0 -125 -125z"/>
<path d="M3129 5983 c-13 -16 -12 -17 4 -4 16 13 21 21 13 21 -2 0 -10 -8 -17 -17z"/>
<path d="M2966 5822 l-19 -27 26 24 c28 26 32 31 20 31 -5 0 -17 -13 -27 -28z"/>
<path d="M2911 5777 c-22 -20 -23 -20 -17 -2 7 19 6 19 -16 -1 -13 -12 -28 -20 -35 -17 -6 2 -17 -6 -24 -19 -14 -27 -51 -63 -79 -78 -11 -6 -20 -16 -20 -22 0 -6 9 -3 19 6 15 14 21 15 27 4 4 -7 3 -10 -1 -5 -5 4 -17 0 -27 -10 -10 -9 -18 -12 -18 -8 0 5 -18 -11 -41 -33 -22 -23 -46 -42 -53 -42 -7 0 -21 -11 -32 -24 -10 -14 -21 -23 -25 -21 -4 3 -12 -2 -19 -10 -7 -8 -17 -15 -22 -15 -15 0 -151 -95 -190 -134 -20 -20 -41 -36 -47 -36 -5 0 -26 -16 -46 -35 -20 -20 -40 -33 -45 -30 -6 4 -7 -1 -3 -11 4 -12 3 -15 -5 -10 -7 4 -12 2 -12 -5 0 -7 -3 -9 -7 -6 -3 4 -57 -43 -119 -105 -63 -61 -119 -115 -125 -119 -16 -10 -11 -18 47 -71 l50 -47 459 459 c253 253 457 462 454 464 -3 3 -16 -5 -28 -17z m-45 -45 c-17 -16 -18 -16 -5 5 7 12 15 20 18 17 3 -2 -3 -12 -13 -22z m-28 -2 c-7 -10 -14 -18 -15 -16 -6 6 9 36 18 36 5 0 4 -9 -3 -20z"/>
<path d="M4395 5884 c-247 -244 -445 -444 -440 -444 66 -5 240 1 248 9 6 6 47 11 91 10 54 0 74 -3 61 -9 -12 -5 133 -10 345 -12 l365 -3 190 187 190 188 -442 0 c-244 0 -443 3 -443 8 0 4 41 48 91 97 50 50 99 102 109 116 16 21 95 288 87 295 -1 1 -204 -198 -452 -442z"/>
<path d="M2532 4855 c0 -16 2 -22 5 -12 2 9 2 23 0 30 -3 6 -5 -1 -5 -18z"/>
<path d="M2794 4256 c-12 -31 0 -51 31 -51 27 0 30 3 30 30 0 25 -4 30 -28 33 -17 2 -29 -2 -33 -12z"/>
<path d="M6344 6165 c-4 -8 -11 -12 -17 -8 -6 3 -7 1 -3 -5 10 -16 14 -15 26 8 6 11 8 20 5 20 -3 0 -8 -7 -11 -15z"/>
<path d="M5277 5338 l-117 -113 0 -110 0 -110 77 80 c42 44 133 138 202 209 70 71 107 115 84 97 -39 -30 -60 -32 -31 -3 19 19 -3 14 -24 -5 -18 -16 -18 -16 -12 0 5 13 2 16 -10 11 -9 -3 -16 -2 -16 4 0 6 6 13 13 15 7 4 6 6 -5 6 -9 1 -19 -5 -21 -11 -7 -17 -29 12 -22 30 2 6 3 12 2 12 -1 0 -55 -51 -120 -112z"/>
<path d="M1982 3205 c-2 -33 -9 -46 -37 -69 -19 -16 -35 -35 -35 -42 0 -7 -5 -14 -12 -16 -8 -3 -13 -61 -16 -187 l-5 -183 58 -54 c32 -30 60 -53 61 -51 2 1 -1 146 -5 322 -4 176 -9 302 -9 280z"/>
<path d="M2015 2570 c-3 -5 -1 -10 4 -10 6 0 11 5 11 10 0 6 -2 10 -4 10 -3 0 -8 -4 -11 -10z"/>
<path d="M2010 2536 c0 -11 -5 -15 -12 -10 -10 6 -10 4 0 -7 9 -10 15 -10 24 -1 9 9 9 15 0 24 -9 9 -12 8 -12 -6z"/>
<path d="M4037 3432 c8 -5 8 -12 -3 -26 -13 -19 -14 -19 -14 5 -1 22 -2 22 -11 6 -22 -37 42 -81 131 -90 l55 -6 -45 14 c-35 11 -37 14 -12 10 23 -3 32 -1 32 9 0 9 -8 12 -22 9 -19 -4 -20 -3 -8 6 12 9 11 11 -7 11 -12 0 -38 14 -56 30 -19 17 -39 30 -43 30 -5 0 -4 -4 3 -8z"/>
<path d="M4777 3410 c-18 -19 -43 -32 -68 -36 -33 -6 -39 -10 -39 -30 0 -20 5 -24 31 -24 16 0 28 3 26 8 -3 4 13 7 35 8 34 0 46 6 75 38 37 40 33 58 -11 49 -17 -4 -18 -3 -6 6 13 10 13 11 0 10 -8 0 -28 -13 -43 -29z"/>
<path d="M6347 3289 c-4 -13 -7 -134 -7 -269 l0 -245 -173 -170 c-95 -93 -334 -329 -532 -522 l-360 -353 -95 0 -95 0 -120 -120 c-108 -108 -136 -145 -79 -105 12 8 24 11 28 7 4 -3 4 2 0 13 -6 17 -5 18 7 8 11 -9 19 -8 34 4 20 15 20 16 0 9 -11 -4 -16 -4 -12 1 5 4 20 8 35 9 15 1 39 4 53 7 50 10 134 18 216 21 73 4 85 7 108 31 15 14 33 24 40 21 7 -2 21 5 32 16 10 12 12 18 6 14 -18 -10 -16 2 3 21 9 9 34 40 56 70 22 29 45 53 50 53 5 0 6 5 3 10 -3 6 -2 10 3 10 14 0 52 36 52 49 0 6 7 11 16 11 9 0 12 5 8 12 -5 8 -2 9 9 5 9 -3 16 -2 14 3 -1 5 16 26 39 47 22 21 53 55 69 76 15 21 30 36 32 34 2 -3 19 10 37 27 38 35 49 44 114 94 25 19 51 35 59 36 7 1 124 109 258 240 l245 238 0 146 c0 81 -5 167 -11 192 -9 44 -49 139 -69 170 -6 8 -13 23 -16 33 -4 9 -10 17 -15 17 -5 0 -15 12 -22 26 l-14 27 -6 -24z m-927 -1633 c0 -3 -4 -8 -10 -11 -5 -3 -10 -1 -10 4 0 6 5 11 10 11 6 0 10 -2 10 -4z"/>
<path d="M5403 2118 c-12 -15 -13 -49 -2 -42 5 2 5 12 2 22 -6 15 -5 16 13 2 17 -14 18 -13 7 1 -7 9 -10 19 -6 22 3 4 4 7 1 7 -3 0 -10 -6 -15 -12z"/>
<path d="M5324 2038 c-4 -7 -4 -10 1 -6 4 4 15 2 23 -5 12 -10 14 -9 11 2 -7 20 -26 25 -35 9z"/>
<path d="M2334 3476 c-12 -31 0 -51 30 -51 36 0 56 26 37 49 -17 20 -60 21 -67 2z"/>
</g>
</svg>
